<svg width="18" height="20" viewBox="0 0 18 20" fill="none" xmlns="http://www.w3.org/2000/svg">
<path d="M0 4.38597C0 3.90152 0.34538 3.50879 0.771428 3.50879L3.43567 3.50832C3.96502 3.49306 4.43202 3.11033 4.61214 2.54412C4.61688 2.52923 4.62232 2.51087 4.64185 2.44424L4.75665 2.05256C4.8269 1.81241 4.8881 1.60318 4.97375 1.41617C5.31209 0.677359 5.93808 0.164319 6.66147 0.032968C6.84457 -0.0002799 7.03848 -0.000139292 7.26106 2.21617e-05H10.7391C10.9617 -0.000139292 11.1556 -0.0002799 11.3387 0.032968C12.0621 0.164319 12.6881 0.677359 13.0264 1.41617C13.1121 1.60318 13.1733 1.81241 13.2435 2.05256L13.3583 2.44424C13.3778 2.51087 13.3833 2.52923 13.388 2.54412C13.5682 3.11033 14.1278 3.49353 14.6571 3.50879H17.2286C17.6546 3.50879 18 3.90152 18 4.38597C18 4.87043 17.6546 5.26316 17.2286 5.26316H0.771428C0.34538 5.26316 0 4.87043 0 4.38597Z" fill="#1C274C"/>
<path fill-rule="evenodd" clip-rule="evenodd" d="M8.5956 20H9.4044C12.1871 20 13.5785 20 14.4831 19.1141C15.3878 18.2281 15.4803 16.7749 15.6654 13.8685L15.9321 9.6806C16.0326 8.10361 16.0828 7.31511 15.6289 6.81545C15.1751 6.31579 14.4087 6.31579 12.876 6.31579H5.12404C3.59127 6.31579 2.82488 6.31579 2.37105 6.81545C1.91722 7.31511 1.96744 8.10361 2.06788 9.6806L2.33459 13.8685C2.5197 16.7749 2.61225 18.2281 3.51689 19.1141C4.42153 20 5.81289 20 8.5956 20ZM12.2463 10.3456C12.2875 9.91174 11.9868 9.52486 11.5746 9.48148C11.1625 9.43809 10.7949 9.75463 10.7537 10.1885L10.2537 15.4516C10.2125 15.8855 10.5132 16.2724 10.9254 16.3157C11.3375 16.3591 11.7051 16.0426 11.7463 15.6087L12.2463 10.3456ZM6.42537 9.48148C6.83753 9.43809 7.20506 9.75463 7.24628 10.1885L7.74628 15.4516C7.78749 15.8855 7.48678 16.2724 7.07463 16.3157C6.66247 16.3591 6.29494 16.0426 6.25372 15.6087L5.75372 10.3456C5.71251 9.91174 6.01321 9.52486 6.42537 9.48148Z" fill="#1C274C"/>
</svg>
