<svg width="20" height="21" viewBox="0 0 20 21" fill="none" xmlns="http://www.w3.org/2000/svg">
<path fill-rule="evenodd" clip-rule="evenodd" d="M10 9.75C10.1989 9.75 10.3897 9.67098 10.5303 9.53033L13.5303 6.53033C13.8232 6.23744 13.8232 5.76256 13.5303 5.46967C13.2374 5.17678 12.7626 5.17678 12.4697 5.46967L10.75 7.18934V1C10.75 0.585787 10.4142 0.25 10 0.25C9.58579 0.25 9.25 0.585787 9.25 1V7.18934L7.53033 5.46967C7.23744 5.17678 6.76256 5.17678 6.46967 5.46967C6.17678 5.76256 6.17678 6.23744 6.46967 6.53033L9.46967 9.53033C9.61032 9.67098 9.80109 9.75 10 9.75Z" fill="#1C274C"/>
<path d="M1.46447 19.5355C2.92893 21 5.28595 21 10 21C14.714 21 17.0711 21 18.5355 19.5355C19.8063 18.2647 19.9744 16.3219 19.9966 12.75H16.8397C15.8659 12.75 15.6113 12.766 15.3975 12.8644C15.1838 12.9627 15.0059 13.1456 14.3722 13.8849L13.6794 14.6933C13.1773 15.2803 12.7796 15.7453 12.2292 15.9984C11.6789 16.2515 11.067 16.2509 10.2945 16.2501H9.70546C8.93295 16.2509 8.32114 16.2515 7.77076 15.9984C7.22038 15.7453 6.82271 15.2803 6.32058 14.6933L5.62784 13.8849C4.9941 13.1456 4.81622 12.9627 4.60245 12.8644C4.38869 12.766 4.13407 12.75 3.16026 12.75H0.00338733C0.0256133 16.3219 0.193674 18.2647 1.46447 19.5355Z" fill="#1C274C"/>
<path d="M20 11C20 6.28595 20 3.92893 18.5355 2.46447C17.3253 1.25428 15.5056 1.04415 12.25 1.00767V3.87812C13.0415 3.59899 13.9579 3.77595 14.591 4.40901C15.4697 5.28769 15.4697 6.71231 14.591 7.59099L11.591 10.591C11.169 11.0129 10.5967 11.25 10 11.25C9.40326 11.25 8.83097 11.0129 8.40901 10.591L5.40901 7.59099C4.53033 6.71231 4.53033 5.28769 5.40901 4.40901C6.04207 3.77595 6.95851 3.59899 7.75 3.87813V1.00767C4.49436 1.04415 2.67466 1.25428 1.46447 2.46447C0 3.92893 0 6.28595 0 11L8.34465e-06 11.25L3.29454 11.2499C4.06705 11.2491 4.67886 11.2485 5.22924 11.5016C5.77961 11.7547 6.17729 12.2197 6.67941 12.8067L7.37216 13.6151C8.0059 14.3544 8.18378 14.5373 8.39755 14.6356C8.61131 14.734 8.86593 14.75 9.83974 14.75H10.1603C11.1341 14.75 11.3887 14.734 11.6025 14.6356C11.8162 14.5373 11.9941 14.3544 12.6278 13.6151L13.3206 12.8067C13.8227 12.2197 14.2204 11.7547 14.7708 11.5016C15.3211 11.2485 15.933 11.2491 16.7055 11.2499L20 11.25L20 11Z" fill="#1C274C"/>
</svg>
