<svg width="32" height="32" viewBox="0 0 32 32" fill="none" xmlns="http://www.w3.org/2000/svg">
<path fill-rule="evenodd" clip-rule="evenodd" d="M21.5 15C21.5 18.5899 18.5899 21.5 15 21.5C11.4101 21.5 8.5 18.5899 8.5 15C8.5 11.4101 11.4101 8.5 15 8.5C18.5899 8.5 21.5 11.4101 21.5 15ZM20.1018 21.1624C18.717 22.3101 16.9391 23 15 23C10.5817 23 7 19.4183 7 15C7 10.5817 10.5817 7 15 7C19.4183 7 23 10.5817 23 15C23 16.9391 22.3101 18.717 21.1624 20.1018L24.9991 23.9384L23.9384 24.9991L20.1018 21.1624Z" fill="#445371"/>
</svg>
