<svg width="20" height="20" viewBox="0 0 20 20" fill="none" xmlns="http://www.w3.org/2000/svg">
<path d="M20 11.1511V8.84892C20 7.62267 20 7.00954 19.7716 6.45823C19.5433 5.90691 19.1097 5.47337 18.2426 4.60628L17.3485 3.71214L3.71203 17.3484L4.60628 18.2426C5.47337 19.1097 5.90691 19.5433 6.45823 19.7716C7.00954 20 7.62267 20 8.84892 20H11.1511C12.3773 20 12.9905 20 13.5418 19.7716C14.0931 19.5433 14.5266 19.1097 15.3937 18.2426L18.2426 15.3937C19.1097 14.5266 19.5433 14.0931 19.7716 13.5418C20 12.9905 20 12.3773 20 11.1511Z" fill="#1C274C"/>
<path d="M2.65137 16.2877L1.75736 15.3937C0.890268 14.5266 0.456723 14.0931 0.228361 13.5418C0 12.9905 0 12.3773 0 11.1511V8.84892C0 7.62267 0 7.00954 0.228361 6.45823C0.456723 5.90691 0.890268 5.47337 1.75736 4.60628L4.60628 1.75736C5.47337 0.890269 5.90691 0.456723 6.45823 0.228362C7.00954 0 7.62267 0 8.84892 0H11.1511C12.3773 0 12.9905 0 13.5418 0.228361C14.0931 0.456723 14.5266 0.890268 15.3937 1.75736L16.2878 2.65148L2.65137 16.2877Z" fill="#1C274C"/>
</svg>
